<svg width="17" height="17" viewBox="0 0 17 17" fill="none" xmlns="http://www.w3.org/2000/svg">
<path d="M0 2C0 1.86739 0.0526784 1.74021 0.146447 1.64645C0.240215 1.55268 0.367392 1.5 0.5 1.5H2C2.11153 1.50003 2.21985 1.53735 2.30773 1.60602C2.39561 1.6747 2.45801 1.77078 2.485 1.879L2.89 3.5H14.5C14.5734 3.50007 14.6459 3.5163 14.7124 3.54755C14.7788 3.5788 14.8375 3.62429 14.8844 3.6808C14.9313 3.73731 14.9651 3.80345 14.9835 3.87452C15.002 3.94558 15.0045 4.01984 14.991 4.092L13.491 12.092C13.4696 12.2066 13.4087 12.3101 13.3191 12.3846C13.2294 12.4591 13.1166 12.4999 13 12.5H4C3.88343 12.4999 3.77057 12.4591 3.68091 12.3846C3.59126 12.3101 3.53045 12.2066 3.509 12.092L2.01 4.107L1.61 2.5H0.5C0.367392 2.5 0.240215 2.44732 0.146447 2.35355C0.0526784 2.25979 0 2.13261 0 2ZM5 12.5C4.46957 12.5 3.96086 12.7107 3.58579 13.0858C3.21071 13.4609 3 13.9696 3 14.5C3 15.0304 3.21071 15.5391 3.58579 15.9142C3.96086 16.2893 4.46957 16.5 5 16.5C5.53043 16.5 6.03914 16.2893 6.41421 15.9142C6.78929 15.5391 7 15.0304 7 14.5C7 13.9696 6.78929 13.4609 6.41421 13.0858C6.03914 12.7107 5.53043 12.5 5 12.5ZM12 12.5C11.4696 12.5 10.9609 12.7107 10.5858 13.0858C10.2107 13.4609 10 13.9696 10 14.5C10 15.0304 10.2107 15.5391 10.5858 15.9142C10.9609 16.2893 11.4696 16.5 12 16.5C12.5304 16.5 13.0391 16.2893 13.4142 15.9142C13.7893 15.5391 14 15.0304 14 14.5C14 13.9696 13.7893 13.4609 13.4142 13.0858C13.0391 12.7107 12.5304 12.5 12 12.5ZM5 13.5C5.26522 13.5 5.51957 13.6054 5.70711 13.7929C5.89464 13.9804 6 14.2348 6 14.5C6 14.7652 5.89464 15.0196 5.70711 15.2071C5.51957 15.3946 5.26522 15.5 5 15.5C4.73478 15.5 4.48043 15.3946 4.29289 15.2071C4.10536 15.0196 4 14.7652 4 14.5C4 14.2348 4.10536 13.9804 4.29289 13.7929C4.48043 13.6054 4.73478 13.5 5 13.5ZM12 13.5C12.2652 13.5 12.5196 13.6054 12.7071 13.7929C12.8946 13.9804 13 14.2348 13 14.5C13 14.7652 12.8946 15.0196 12.7071 15.2071C12.5196 15.3946 12.2652 15.5 12 15.5C11.7348 15.5 11.4804 15.3946 11.2929 15.2071C11.1054 15.0196 11 14.7652 11 14.5C11 14.2348 11.1054 13.9804 11.2929 13.7929C11.4804 13.6054 11.7348 13.5 12 13.5Z" fill="black"/>
<circle cx="14" cy="3.5" r="3" fill="#00B9B9"/>
</svg>
